<?xml version="1.0" encoding="UTF-8"?>
<svg xmlns="http://www.w3.org/2000/svg" viewBox="0 0 1920 1200">
  <defs>
    <style>
      .cls-1 {
        stroke-width: 1.33px;
      }

      .cls-1, .cls-2, .cls-3, .cls-4, .cls-5, .cls-6, .cls-7, .cls-8, .cls-9, .cls-10, .cls-11, .cls-12, .cls-13, .cls-14, .cls-15, .cls-16, .cls-17, .cls-18, .cls-19, .cls-20, .cls-21, .cls-22, .cls-23, .cls-24, .cls-25, .cls-26, .cls-27, .cls-28, .cls-29, .cls-30, .cls-31, .cls-32, .cls-33, .cls-34, .cls-35, .cls-36, .cls-37, .cls-38, .cls-39, .cls-40, .cls-41, .cls-42, .cls-43, .cls-44, .cls-45, .cls-46, .cls-47, .cls-48, .cls-49, .cls-50, .cls-51, .cls-52, .cls-53, .cls-54, .cls-55, .cls-56, .cls-57, .cls-58, .cls-59, .cls-60, .cls-61, .cls-62, .cls-63, .cls-64, .cls-65, .cls-66, .cls-67, .cls-68, .cls-69, .cls-70, .cls-71, .cls-72, .cls-73, .cls-74, .cls-75, .cls-76, .cls-77, .cls-78, .cls-79, .cls-80, .cls-81, .cls-82, .cls-83, .cls-84, .cls-85, .cls-86, .cls-87, .cls-88, .cls-89, .cls-90, .cls-91, .cls-92, .cls-93, .cls-94, .cls-95, .cls-96, .cls-97, .cls-98, .cls-99, .cls-100, .cls-101, .cls-102, .cls-103, .cls-104, .cls-105, .cls-106 {
        fill: none;
        stroke-miterlimit: 10;
      }

      .cls-1, .cls-3, .cls-9, .cls-10, .cls-11, .cls-12, .cls-14, .cls-15, .cls-16, .cls-17, .cls-19, .cls-21, .cls-24, .cls-25, .cls-26, .cls-31, .cls-33, .cls-36, .cls-37, .cls-38, .cls-39, .cls-40, .cls-41, .cls-43, .cls-45, .cls-46, .cls-47, .cls-48, .cls-49, .cls-50, .cls-53, .cls-54, .cls-60, .cls-62, .cls-65, .cls-66, .cls-70, .cls-74, .cls-75, .cls-76, .cls-78, .cls-81, .cls-82, .cls-85, .cls-86, .cls-88, .cls-90, .cls-91, .cls-97, .cls-99, .cls-101, .cls-102, .cls-103 {
        stroke: #e03d28;
      }

      .cls-2 {
        stroke-width: 1.2px;
      }

      .cls-2, .cls-4, .cls-5, .cls-6, .cls-7, .cls-8, .cls-13, .cls-18, .cls-20, .cls-22, .cls-23, .cls-27, .cls-28, .cls-29, .cls-30, .cls-32, .cls-34, .cls-35, .cls-42, .cls-44, .cls-51, .cls-52, .cls-55, .cls-56, .cls-57, .cls-58, .cls-59, .cls-61, .cls-63, .cls-64, .cls-67, .cls-68, .cls-69, .cls-71, .cls-72, .cls-73, .cls-77, .cls-79, .cls-80, .cls-83, .cls-84, .cls-87, .cls-89, .cls-92, .cls-93, .cls-94, .cls-95, .cls-96, .cls-98, .cls-100, .cls-104, .cls-105, .cls-106 {
        stroke: #a52210;
      }

      .cls-3 {
        stroke-width: 1.88px;
      }

      .cls-4 {
        stroke-width: .91px;
      }

      .cls-5 {
        stroke-width: 1.33px;
      }

      .cls-6 {
        stroke-width: 1.27px;
      }

      .cls-7 {
        stroke-width: .93px;
      }

      .cls-8 {
        stroke-width: .92px;
      }

      .cls-9 {
        stroke-width: 1.89px;
      }

      .cls-10 {
        stroke-width: 1.76px;
      }

      .cls-11 {
        stroke-width: 1.71px;
      }

      .cls-12 {
        stroke-width: 1.56px;
      }

      .cls-13 {
        stroke-width: 1.35px;
      }

      .cls-14 {
        stroke-width: 1.55px;
      }

      .cls-15 {
        stroke-width: 1.77px;
      }

      .cls-16 {
        stroke-width: 1.81px;
      }

      .cls-17 {
        stroke-width: 1.36px;
      }

      .cls-18 {
        stroke-width: 1.32px;
      }

      .cls-19 {
        stroke-width: 1.58px;
      }

      .cls-20 {
        stroke-width: 1.33px;
      }

      .cls-21 {
        stroke-width: 1.27px;
      }

      .cls-22 {
        stroke-width: 1.45px;
      }

      .cls-23 {
        stroke-width: 1.48px;
      }

      .cls-24 {
        stroke-width: 1.97px;
      }

      .cls-25 {
        stroke-width: 1.23px;
      }

      .cls-26 {
        stroke-width: 1.23px;
      }

      .cls-27 {
        stroke-width: 1.18px;
      }

      .cls-28 {
        stroke-width: 1.15px;
      }

      .cls-29 {
        stroke-width: 1.1px;
      }

      .cls-30 {
        stroke-width: 1.42px;
      }

      .cls-31 {
        stroke-width: 1.68px;
      }

      .cls-32 {
        stroke-width: .92px;
      }

      .cls-33 {
        stroke-width: 1.33px;
      }

      .cls-34 {
        stroke-width: 1px;
      }

      .cls-35 {
        stroke-width: 1.31px;
      }

      .cls-36 {
        stroke-width: 1.3px;
      }

      .cls-37 {
        stroke-width: 1.74px;
      }

      .cls-107 {
        fill: #f5f3e6;
      }

      .cls-38 {
        stroke-width: 1.68px;
      }

      .cls-39 {
        stroke-width: 1.61px;
      }

      .cls-40 {
        stroke-width: 1.94px;
      }

      .cls-41 {
        stroke-width: 1.59px;
      }

      .cls-42 {
        stroke-width: .93px;
      }

      .cls-43 {
        stroke-width: 1.76px;
      }

      .cls-44 {
        stroke-width: 1.41px;
      }

      .cls-45 {
        stroke-width: 1.8px;
      }

      .cls-46 {
        stroke-width: 1.75px;
      }

      .cls-47 {
        stroke-width: 1.16px;
      }

      .cls-48 {
        stroke-width: 1.18px;
      }

      .cls-49 {
        stroke-width: 1.34px;
      }

      .cls-50 {
        stroke-width: 1.24px;
      }

      .cls-51 {
        stroke-width: 1.26px;
      }

      .cls-52 {
        stroke-width: 1.5px;
      }

      .cls-53 {
        stroke-width: 1.55px;
      }

      .cls-54 {
        stroke-width: 1.83px;
      }

      .cls-55 {
        stroke-width: .94px;
      }

      .cls-56 {
        stroke-width: 1.38px;
      }

      .cls-57 {
        stroke-width: 1px;
      }

      .cls-58 {
        stroke-width: 1.25px;
      }

      .cls-59 {
        stroke-width: .98px;
      }

      .cls-60 {
        stroke-width: 1.66px;
      }

      .cls-61 {
        stroke-width: 1.28px;
      }

      .cls-62 {
        stroke-width: 1.24px;
      }

      .cls-63 {
        stroke-width: 1.02px;
      }

      .cls-64 {
        stroke-width: 1.41px;
      }

      .cls-65 {
        stroke-width: 1.48px;
      }

      .cls-66 {
        stroke-width: 1.25px;
      }

      .cls-67 {
        stroke-width: 1.32px;
      }

      .cls-68 {
        stroke-width: 1.17px;
      }

      .cls-69 {
        stroke-width: 1.27px;
      }

      .cls-70 {
        stroke-width: 1.24px;
      }

      .cls-71 {
        stroke-width: 1.21px;
      }

      .cls-72 {
        stroke-width: 1.26px;
      }

      .cls-73 {
        stroke-width: 1.16px;
      }

      .cls-74 {
        stroke-width: 1.77px;
      }

      .cls-75 {
        stroke-width: 1.7px;
      }

      .cls-76 {
        stroke-width: 1.7px;
      }

      .cls-77 {
        stroke-width: 1.47px;
      }

      .cls-78 {
        stroke-width: 1.99px;
      }

      .cls-79 {
        stroke-width: 1.31px;
      }

      .cls-80 {
        stroke-width: .95px;
      }

      .cls-81 {
        stroke-width: 1.77px;
      }

      .cls-82 {
        stroke-width: 1.81px;
      }

      .cls-83 {
        stroke-width: 1.36px;
      }

      .cls-84 {
        stroke-width: 1.33px;
      }

      .cls-85 {
        stroke-width: 1.78px;
      }

      .cls-86 {
        stroke-width: 2px;
      }

      .cls-87 {
        stroke-width: .88px;
      }

      .cls-88 {
        stroke-width: 1.22px;
      }

      .cls-89 {
        stroke-width: 1.11px;
      }

      .cls-90 {
        stroke-width: 1.77px;
      }

      .cls-91 {
        stroke-width: 1.37px;
      }

      .cls-92 {
        stroke-width: 1.16px;
      }

      .cls-93 {
        stroke-width: 1.03px;
      }

      .cls-94 {
        stroke-width: .93px;
      }

      .cls-95 {
        stroke-width: 1.36px;
      }

      .cls-96 {
        stroke-width: 1.33px;
      }

      .cls-97 {
        stroke-width: 1.22px;
      }

      .cls-98 {
        stroke-width: 1.33px;
      }

      .cls-99 {
        stroke-width: 1.96px;
      }

      .cls-100 {
        stroke-width: 1.01px;
      }

      .cls-101 {
        stroke-width: 1.88px;
      }

      .cls-102 {
        stroke-width: 1.46px;
      }

      .cls-103 {
        stroke-width: 1.53px;
      }

      .cls-104 {
        stroke-width: .91px;
      }

      .cls-105 {
        stroke-width: .87px;
      }

      .cls-106 {
        stroke-width: 1.5px;
      }
    </style>
  </defs>
  <g id="fundo">
    <rect class="cls-107" x="0" width="1920" height="1200"/>
  </g>
  <g id="fruta">
    <g>
      <g>
        <path class="cls-12" d="m1683.7,1031.25c-18.06-20.97-43.21-33.65-70.81-35.71-27.6-2.06-54.35,6.76-75.31,24.82l2.92,3.39c41.42-35.68,104.14-31,139.82,10.42,35.68,41.42,31,104.14-10.42,139.82l2.92,3.39c20.97-18.06,33.65-43.21,35.71-70.81,2.06-27.6-6.76-54.35-24.82-75.31Z"/>
        <path class="cls-68" d="m1627.75,1019.53c-14.35-4.06-29.65-4.2-44.16-.28l21.88,75.33,22.28-75.05Z"/>
        <path class="cls-68" d="m1680.61,1132.31c6.11-13.8,8.29-29,6.41-43.86l-77.88,10.96,71.47,32.9Z"/>
        <path class="cls-68" d="m1581.43,1019.87c-10.74,3.23-21,8.71-30.05,16.5h0s46.57,54.07,46.57,54.07l5.32,4.64-21.84-75.21Z"/>
        <path class="cls-68" d="m1666.96,1044.22c-10.3-11.65-23.19-19.71-37.05-24.05l-22.32,75.19,59.37-51.14Z"/>
        <path class="cls-68" d="m1679.66,1134.35l-71.6-32.95,1.95,3.05,49.01,56.9h0c8.97-7.72,15.86-16.96,20.64-27Z"/>
        <path class="cls-68" d="m1668.44,1045.93l-59.48,51.23,77.74-10.94c-2.22-14.38-8.27-28.35-18.27-40.29Z"/>
      </g>
      <g>
        <path class="cls-14" d="m1450.31,1049.33c-8.77-26.09-27.18-47.21-51.83-59.45-24.65-12.25-52.6-14.16-78.69-5.39l1.42,4.22c51.54-17.33,107.57,10.5,124.89,62.04,17.33,51.54-10.5,107.57-62.04,124.89l1.42,4.22c26.09-8.77,47.21-27.18,59.45-51.83,12.25-24.65,14.16-52.6,5.39-78.69Z"/>
        <path class="cls-92" d="m1403.16,1017.54c-11.7-9.13-25.74-14.99-40.57-16.82l-8.1,77.6,48.68-60.78Z"/>
        <path class="cls-92" d="m1409.55,1141.26c10.8-10.42,18.52-23.61,22.36-38l-75.86-19.12,53.5,57.11Z"/>
        <path class="cls-92" d="m1360.36,1000.48c-11.11-1.06-22.61.14-33.87,3.93h0s22.62,67.27,22.62,67.27l3.16,6.27,8.09-77.47Z"/>
        <path class="cls-92" d="m1430.02,1055c-5.12-14.6-13.97-26.85-25.11-36.05l-48.76,60.89,73.88-24.84Z"/>
        <path class="cls-92" d="m1407.91,1142.8l-53.6-57.22.65,3.54,23.81,70.8h0c11.16-3.75,20.97-9.67,29.14-17.13Z"/>
        <path class="cls-92" d="m1430.74,1057.12l-74.01,24.88,75.73,19.08c3.35-14.08,3.02-29.21-1.72-43.97Z"/>
      </g>
      <g>
        <path class="cls-99" d="m1160.12,1128.89c28.51-19.82,47.59-49.56,53.74-83.74,6.14-34.18-1.39-68.7-21.22-97.21l-4.61,3.2c39.16,56.31,25.2,133.98-31.12,173.14-56.31,39.16-133.98,25.2-173.14-31.12l-4.61,3.2c19.82,28.51,49.56,47.59,83.74,53.74,34.18,6.14,68.7-1.39,97.21-21.22Z"/>
        <path class="cls-77" d="m1181.99,1060.57c6.93-17.38,9.09-36.46,6.07-55.07l-96.85,17.54,90.78,37.53Z"/>
        <path class="cls-77" d="m1034.4,1111.92c16.43,9.41,35.12,14.1,53.9,13.68l-3.59-98.62-50.32,84.93Z"/>
        <path class="cls-77" d="m1187.57,1002.72c-2.64-13.83-8.14-27.34-16.7-39.64h0s-73.51,51.11-73.51,51.11l-6.48,6.04,96.69-17.51Z"/>
        <path class="cls-77" d="m1146.1,1106.31c15.88-11.35,27.6-26.38,34.81-43.13l-90.94-37.6,56.13,80.72Z"/>
        <path class="cls-77" d="m1031.96,1110.48l50.41-85.08-4.06,2.04-77.36,53.79h0c8.48,12.19,19.11,21.99,31.02,29.26Z"/>
        <path class="cls-77" d="m1143.78,1107.93l-56.23-80.87,3.58,98.44c18.24-.9,36.45-6.64,52.64-17.58Z"/>
      </g>
      <g>
        <path class="cls-101" d="m927.78,1008.06c-33.06-3.64-65.55,5.8-91.5,26.6-25.95,20.8-42.25,50.46-45.89,83.51l5.34.59c7.2-65.29,66.17-112.56,131.47-105.36,65.29,7.2,112.56,66.17,105.36,131.47l5.34.59c3.64-33.06-5.8-65.55-26.6-91.5-20.8-25.95-50.46-42.25-83.51-45.89Z"/>
        <path class="cls-44" d="m868.99,1043.59c-15.95,8.18-29.51,20.59-39.05,35.92l80.94,48.32-41.89-84.24Z"/>
        <path class="cls-44" d="m1007.84,1099.46c-5.93-17.14-16.47-32.29-30.29-43.82l-59.5,73.43,89.79-29.62Z"/>
        <path class="cls-44" d="m828.54,1081.84c-6.8,11.64-11.33,24.86-12.91,39.12h0s85.23,9.39,85.23,9.39l8.48-.28-80.8-48.24Z"/>
        <path class="cls-44" d="m923.69,1033.18c-18.6-1.81-36.53,1.67-52.28,9.21l41.96,84.39,10.32-93.6Z"/>
        <path class="cls-44" d="m1008.69,1102.03l-89.95,29.67,4.21,1.09,89.7,9.89h0c1.56-14.14.06-27.9-3.97-40.64Z"/>
        <path class="cls-44" d="m926.39,1033.48l-10.33,93.76,59.4-73.3c-13.73-10.83-30.49-18.15-49.06-20.46Z"/>
      </g>
      <g>
        <path class="cls-76" d="m724.27,1120.33c28.98-8.27,53-27.33,67.65-53.67,14.64-26.34,18.15-56.81,9.88-85.78l-4.68,1.34c16.34,57.24-16.94,117.1-74.18,133.44-57.24,16.34-117.1-16.94-133.44-74.18l-4.68,1.34c8.27,28.98,27.33,53,53.67,67.65,26.34,14.64,56.81,18.15,85.78,9.88Z"/>
        <path class="cls-69" d="m761.42,1070.38c10.58-12.33,17.7-27.39,20.45-43.52l-84.45-12.8,64,56.32Z"/>
        <path class="cls-69" d="m625.8,1071.09c10.85,12.34,24.88,21.45,40.42,26.38l24.75-81.99-65.17,55.61Z"/>
        <path class="cls-69" d="m782.25,1024.43c1.72-12.09.99-24.74-2.58-37.24h0s-74.72,21.32-74.72,21.32l-7.02,3.14,84.32,12.78Z"/>
        <path class="cls-69" d="m719.1,1097.86c16.22-4.86,30.07-13.91,40.7-25.64l-64.12-56.42,23.42,82.05Z"/>
        <path class="cls-69" d="m624.2,1069.22l65.29-55.71-3.91.53-78.64,22.44h0c3.54,12.39,9.51,23.43,17.25,32.74Z"/>
        <path class="cls-69" d="m716.74,1098.53l-23.46-82.2-24.71,81.85c15.23,4.38,31.8,4.78,48.17.35Z"/>
      </g>
      <g>
        <path class="cls-36" d="m487.33,1045.67c-9.03-21.27-25.81-37.76-47.23-46.42-21.43-8.66-44.95-8.45-66.22.58l1.46,3.44c42.02-17.84,90.72,1.84,108.56,43.86s-1.84,90.72-43.86,108.56l1.46,3.44c21.27-9.03,37.76-25.81,46.42-47.24,8.66-21.43,8.45-44.95-.58-66.22Z"/>
        <path class="cls-59" d="m445.81,1022.12c-10.38-6.88-22.51-10.89-35.05-11.45l-1.77,65.48,36.82-54.03Z"/>
        <path class="cls-59" d="m459.15,1125.27c8.37-9.42,13.97-20.96,16.26-33.25l-64.74-11.1,48.48,44.35Z"/>
        <path class="cls-59" d="m408.87,1010.6c-9.37-.17-18.92,1.58-28.1,5.48h0s23.28,54.85,23.28,54.85l3.05,5.04,1.76-65.38Z"/>
        <path class="cls-59" d="m470.72,1051.73c-5.23-11.89-13.43-21.57-23.35-28.55l-36.88,54.12,60.24-25.57Z"/>
        <path class="cls-59" d="m457.88,1126.66l-48.57-44.43.77,2.92,24.51,57.73h0c9.1-3.86,16.93-9.45,23.29-16.22Z"/>
        <path class="cls-59" d="m471.45,1053.47l-60.34,25.62,64.62,11.08c1.9-12,.64-24.65-4.28-36.69Z"/>
      </g>
      <g>
        <path class="cls-91" d="m288.83,1019.64c-24.36-.78-47.56,7.98-65.33,24.65-17.77,16.67-27.99,39.27-28.76,63.62l3.93.13c1.54-48.11,41.92-86,90.03-84.46,48.11,1.54,86,41.92,84.46,90.03l3.93.13c.78-24.36-7.98-47.56-24.65-65.33-16.67-17.77-39.27-27.99-63.62-28.76Z"/>
        <path class="cls-93" d="m247.91,1048.94c-11.18,6.89-20.38,16.72-26.48,28.47l61.88,30.68-35.4-59.15Z"/>
        <path class="cls-93" d="m352.52,1081.84c-5.31-12.18-13.87-22.65-24.62-30.28l-39.28,57.03,63.9-26.75Z"/>
        <path class="cls-93" d="m220.54,1079.18c-4.31,8.89-6.86,18.8-7.2,29.31h0s62.8,2,62.8,2l6.18-.69-61.78-30.63Z"/>
        <path class="cls-93" d="m287.27,1038.22c-13.69-.26-26.59,3.3-37.66,9.71l35.46,59.25,2.2-68.96Z"/>
        <path class="cls-93" d="m353.29,1083.67l-64.01,26.8,3.14.55,66.09,2.11h0c.33-10.41-1.55-20.38-5.21-29.46Z"/>
        <path class="cls-93" d="m289.26,1038.28l-2.2,69.08,39.21-56.93c-10.65-7.13-23.31-11.52-37-12.15Z"/>
      </g>
      <g>
        <path class="cls-97" d="m83.05,1071.77c5.69-20.8,2.94-42.57-7.75-61.3-10.69-18.73-28.03-32.18-48.83-37.87l-.92,3.36c41.09,11.24,65.37,53.81,54.13,94.9-11.24,41.09-53.81,65.37-94.9,54.13l-.92,3.36c20.8,5.69,42.57,2.94,61.3-7.75,18.73-10.69,32.18-28.03,37.87-48.83Z"/>
        <path class="cls-104" d="m66.26,1030.51c-3.62-11.04-10.19-20.99-19.04-28.66l-39.16,46.93,58.2-18.27Z"/>
        <path class="cls-104" d="m16.38,1113.76c11.58-2.06,22.35-7.27,31.14-14.95l-40.99-45.56,9.85,60.51Z"/>
        <path class="cls-104" d="m45.87,1000.72c-6.76-5.54-14.77-9.78-23.75-12.24h0s-14.67,53.63-14.67,53.63l-.68,5.46,39.1-46.85Z"/>
        <path class="cls-104" d="m67.38,1066.6c3.04-11.73,2.64-23.56-.59-34.41l-58.31,18.3,58.9,16.11Z"/>
        <path class="cls-104" d="m14.65,1114.04l-9.87-60.62-1.12,2.59-15.44,56.45h0c8.89,2.43,17.86,2.87,26.43,1.59Z"/>
        <path class="cls-104" d="m66.91,1068.29l-59-16.14,40.92,45.48c8.33-7.69,14.72-17.68,18.08-29.34Z"/>
      </g>
    </g>
    <g>
      <g>
        <path class="cls-38" d="m1933.29,889.25c12.87-26.84,14.51-57.08,4.63-85.16-9.88-28.08-30.1-50.62-56.94-63.49l-2.08,4.34c53.01,25.41,75.47,89.22,50.06,142.23-25.41,53.01-89.22,75.47-142.23,50.06l-2.08,4.34c26.84,12.87,57.08,14.51,85.16,4.63,28.08-9.88,50.62-30.1,63.49-56.94Z"/>
        <path class="cls-72" d="m1920.7,829.07c-2.19-15.89-8.65-31.02-18.78-43.62l-64.77,54.05,83.55-10.43Z"/>
        <path class="cls-72" d="m1832.4,929.8c16.23.06,32.15-4.35,45.97-12.61l-44.4-72-1.57,84.6Z"/>
        <path class="cls-72" d="m1900.37,783.58c-7.81-9.19-17.64-16.93-29.22-22.48h0s-33.17,69.2-33.17,69.2l-2.27,7.24,64.67-53.96Z"/>
        <path class="cls-72" d="m1913.29,878.35c7.03-15.18,9.41-31.34,7.7-46.88l-83.7,10.45,75.99,36.43Z"/>
        <path class="cls-72" d="m1829.97,929.75l1.58-84.75-2.17,3.24-34.91,72.83h0c11.48,5.5,23.55,8.31,35.5,8.68Z"/>
        <path class="cls-72" d="m1912.24,880.54l-76.13-36.49,44.32,71.87c13.21-8.39,24.36-20.37,31.81-35.38Z"/>
      </g>
      <g>
        <path class="cls-41" d="m1672.6,796.72c-27.23-7.57-55.79-4.09-80.4,9.82-24.61,13.9-42.34,36.56-49.91,63.79l4.4,1.22c14.96-53.79,70.89-85.39,124.68-70.43,53.79,14.96,85.39,70.89,70.43,124.68l4.4,1.22c7.57-27.23,4.08-55.79-9.82-80.4-13.9-24.61-36.56-42.34-63.79-49.91Z"/>
        <path class="cls-2" d="m1618.42,818.49c-14.5,4.68-27.57,13.24-37.67,24.8l61.3,51.59-23.63-76.39Z"/>
        <path class="cls-2" d="m1727.27,884.33c-2.64-15.19-9.41-29.34-19.42-40.89l-59.95,53.48,79.37-12.58Z"/>
        <path class="cls-2" d="m1579.26,845.06c-7.3,8.83-12.9,19.31-16.17,31.06h0s70.22,19.52,70.22,19.52l7.15.92-61.2-51.5Z"/>
        <path class="cls-2" d="m1665.73,817.23c-15.36-4.06-30.87-3.59-45.11.58l23.67,76.53,21.44-77.11Z"/>
        <path class="cls-2" d="m1727.63,886.6l-79.51,12.6,3.39,1.49,73.9,20.55h0c3.24-11.65,3.86-23.4,2.22-34.64Z"/>
        <path class="cls-2" d="m1667.95,817.85l-21.48,77.25,59.84-53.38c-10.04-10.96-23.1-19.39-38.36-23.86Z"/>
      </g>
      <g>
        <path class="cls-31" d="m1519.38,821.86c-19.67-22.32-46.85-35.65-76.55-37.53-29.69-1.88-58.34,7.92-80.66,27.59l3.18,3.61c44.09-38.85,111.57-34.59,150.43,9.51,38.85,44.09,34.59,111.57-9.51,150.43l3.18,3.61c22.32-19.67,35.65-46.85,37.53-76.55,1.88-29.69-7.92-58.34-27.59-80.66Z"/>
        <path class="cls-51" d="m1459.09,809.94c-15.48-4.2-31.92-4.16-47.47.24l24.43,80.71,23.04-80.95Z"/>
        <path class="cls-51" d="m1517.28,930.53c6.4-14.91,8.56-31.28,6.36-47.22l-83.59,12.73,77.23,34.5Z"/>
        <path class="cls-51" d="m1409.3,810.87c-11.51,3.6-22.47,9.61-32.1,18.1h0s50.71,57.56,50.71,57.56l5.78,4.92-24.39-80.58Z"/>
        <path class="cls-51" d="m1501.55,836c-11.22-12.4-25.16-20.9-40.12-25.4l-23.08,81.09,63.2-55.69Z"/>
        <path class="cls-51" d="m1516.29,932.74l-77.37-34.56,2.13,3.26,53.37,60.57h0c9.55-8.41,16.84-18.42,21.86-29.27Z"/>
        <path class="cls-51" d="m1503.15,837.82l-63.32,55.79,83.44-12.7c-2.56-15.43-9.23-30.37-20.13-43.09Z"/>
      </g>
      <g>
        <path class="cls-74" d="m1266.48,918.4c28.94,12.23,60.92,12.46,90.03.64,29.11-11.82,51.88-34.27,64.11-63.21l-4.68-1.98c-24.16,57.17-90.32,84.03-147.49,59.87s-84.03-90.32-59.87-147.49l-4.68-1.98c-12.23,28.94-12.46,60.92-.64,90.03,11.82,29.11,34.27,51.88,63.21,64.11Z"/>
        <path class="cls-96" d="m1329.31,902.12c16.65-3.1,32.28-10.67,45.06-21.97l-60.22-65.61,15.16,87.58Z"/>
        <path class="cls-96" d="m1218.7,814.02c.74,17.12,6.19,33.69,15.58,47.85l73.71-50.41-89.29,2.55Z"/>
        <path class="cls-96" d="m1376.27,878.42c9.3-8.7,16.98-19.44,22.25-31.93h0s-74.63-31.53-74.63-31.53l-7.75-2.04,60.12,65.5Z"/>
        <path class="cls-96" d="m1276.97,896.76c16.35,6.66,33.52,8.36,49.82,5.79l-15.19-87.74-34.63,81.95Z"/>
        <path class="cls-96" d="m1218.63,811.46l89.45-2.56-3.52-2.12-78.54-33.19h0c-5.23,12.38-7.59,25.25-7.39,37.87Z"/>
        <path class="cls-96" d="m1274.62,895.76l34.69-82.09-73.58,50.32c9.51,13.51,22.7,24.67,38.89,31.78Z"/>
      </g>
      <g>
        <path class="cls-26" d="m1023.44,900.31c20.98,6.1,43.07,3.66,62.22-6.86,19.14-10.52,33.05-27.87,39.14-48.84l-3.39-.99c-12.04,41.43-55.55,65.35-96.99,53.3-41.43-12.04-65.35-55.55-53.3-96.99l-3.39-.99c-6.1,20.98-3.66,43.07,6.86,62.22,10.52,19.14,27.87,33.05,48.84,39.14Z"/>
        <path class="cls-8" d="m1065.5,883.98c11.24-3.49,21.42-9.98,29.33-18.83l-46.9-40.42,17.57,59.25Z"/>
        <path class="cls-8" d="m981.98,832.12c1.9,11.76,7,22.76,14.64,31.78l46.81-40.78-61.45,9.01Z"/>
        <path class="cls-8" d="m1096,863.8c5.72-6.76,10.15-14.8,12.78-23.85h0s-54.09-15.72-54.09-15.72l-5.52-.78,46.83,40.35Z"/>
        <path class="cls-8" d="m1028.93,884.52c11.83,3.27,23.82,3.06,34.87-.04l-17.6-59.35-17.26,59.39Z"/>
        <path class="cls-8" d="m981.72,830.36l61.56-9.02-2.6-1.18-56.92-16.55h0c-2.61,8.97-3.19,18.05-2.03,26.75Z"/>
        <path class="cls-8" d="m1027.22,884.03l17.29-59.5-46.72,40.71c7.66,8.56,17.67,15.19,29.43,18.79Z"/>
      </g>
      <g>
        <path class="cls-45" d="m877.33,920.25c31.88,1.72,62.53-9.07,86.3-30.4,23.76-21.33,37.8-50.63,39.53-82.52l-5.15-.28c-3.4,62.98-57.41,111.45-120.39,108.04-62.98-3.4-111.45-57.41-108.04-120.39l-5.15-.28c-1.72,31.88,9.07,62.53,30.4,86.3,21.33,23.77,50.63,37.8,82.52,39.53Z"/>
        <path class="cls-13" d="m931.79,883.04c14.85-8.7,27.19-21.32,35.51-36.53l-80.18-41.99,44.66,78.52Z"/>
        <path class="cls-13" d="m795.69,836.91c6.6,16.11,17.52,30.08,31.38,40.38l53.11-73.58-84.49,33.2Z"/>
        <path class="cls-13" d="m968.52,844.21c5.9-11.52,9.53-24.44,10.28-38.2h0s-82.21-4.44-82.21-4.44l-8.11.72,80.05,41.92Z"/>
        <path class="cls-13" d="m879.91,895.95c17.93.74,34.93-3.55,49.62-11.62l-44.74-78.65-4.88,90.28Z"/>
        <path class="cls-13" d="m794.74,834.49l84.64-33.26-4.1-.82-86.52-4.68h0c-.74,13.63,1.44,26.75,5.98,38.75Z"/>
        <path class="cls-13" d="m877.31,895.81l4.89-90.44-53.02,73.45c13.74,9.65,30.2,15.77,48.13,16.99Z"/>
      </g>
      <g>
        <path class="cls-10" d="m592.14,903.22c26.22,16.95,57.47,22.67,87.99,16.12,30.52-6.55,56.67-24.6,73.62-50.82l-4.24-2.74c-33.48,51.79-102.85,66.68-154.64,33.2-51.79-33.48-66.68-102.85-33.2-154.64l-4.24-2.74c-16.95,26.22-22.67,57.47-16.12,87.99,6.55,30.52,24.6,56.67,50.82,73.62Z"/>
        <path class="cls-18" d="m656.43,898.11c16.83-.17,33.43-4.88,47.88-13.75l-47.64-74.57-.24,88.32Z"/>
        <path class="cls-18" d="m563.34,792.86c-2.22,16.88.26,34.03,7.01,49.51l80.81-36.64-87.82-12.87Z"/>
        <path class="cls-18" d="m706.45,883c10.6-6.91,19.96-16.1,27.27-27.42h0s-67.6-43.7-67.6-43.7l-7.24-3.33,47.56,74.45Z"/>
        <path class="cls-18" d="m606.13,883.86c14.86,9.33,31.36,13.95,47.75,14.24l.24-88.47-47.99,74.23Z"/>
        <path class="cls-18" d="m563.71,790.34l87.97,12.89-3.08-2.68-71.15-45.99h0c-7.25,11.21-11.77,23.4-13.75,35.79Z"/>
        <path class="cls-18" d="m603.99,882.48l48.08-74.37-80.66,36.58c6.98,14.86,17.97,28.05,32.59,37.79Z"/>
      </g>
      <g>
        <path class="cls-90" d="m397.94,853.23c2.06,31.29,16.19,59.91,39.77,80.58,23.59,20.67,53.81,30.92,85.1,28.86l-.33-5.06c-61.81,4.07-115.41-42.9-119.48-104.71-4.07-61.81,42.9-115.41,104.71-119.48l-.33-5.06c-31.29,2.06-59.91,16.19-80.58,39.77-20.67,23.59-30.92,53.81-28.86,85.1Z"/>
        <path class="cls-20" d="m440.62,901.97c10.22,13.46,23.98,24.01,39.79,30.34l31.53-83.11-71.32,52.77Z"/>
        <path class="cls-20" d="m469.62,763.85c-14.93,8.33-27.27,20.61-35.69,35.34l77.98,43.15-42.29-78.49Z"/>
        <path class="cls-20" d="m482.79,933.23c11.93,4.4,24.95,6.43,38.45,5.54h0s-5.32-80.68-5.32-80.68l-1.66-7.83-31.48,82.97Z"/>
        <path class="cls-20" d="m421.94,852.9c1.39,17.57,7.56,33.64,17.16,47.02l71.44-52.86-88.6,5.84Z"/>
        <path class="cls-20" d="m471.87,762.64l42.36,78.63.32-4.09-5.59-84.92h0c-13.38.88-25.92,4.54-37.08,10.38Z"/>
        <path class="cls-20" d="m421.77,850.35l88.76-5.85-77.84-43.07c-7.79,14.53-11.83,31.3-10.92,48.92Z"/>
      </g>
      <g>
        <path class="cls-24" d="m257.85,915.91c30.68-16.59,53.06-44.14,63.02-77.56,9.96-33.43,6.31-68.73-10.28-99.41l-4.96,2.68c32.77,60.6,10.13,136.56-50.47,169.33-60.6,32.77-136.56,10.13-169.33-50.47l-4.96,2.68c16.59,30.68,44.14,53.06,77.56,63.02,33.42,9.96,68.73,6.31,99.41-10.28Z"/>
        <path class="cls-23" d="m287.34,850.17c8.87-16.57,13.16-35.37,12.23-54.29l-98.63,6.65,86.4,47.64Z"/>
        <path class="cls-23" d="m134.26,884.88c15.34,11.24,33.48,18.01,52.27,19.7l7.47-98.84-59.74,79.14Z"/>
        <path class="cls-23" d="m299.39,793.05c-1.08-14.1-5.07-28.2-12.22-41.44h0s-79.1,42.78-79.1,42.78l-7.14,5.3,98.47-6.64Z"/>
        <path class="cls-23" d="m246.39,891.81c17.12-9.55,30.5-23.24,39.58-39.15l-86.56-47.72,46.98,86.87Z"/>
        <path class="cls-23" d="m131.99,883.17l59.85-79.28-4.28,1.58-83.25,45.02h0c7.09,13.12,16.61,24.09,27.68,32.68Z"/>
        <path class="cls-23" d="m243.89,893.16l-47.06-87.02-7.46,98.66c18.3,1.14,37.13-2.55,54.52-11.64Z"/>
      </g>
      <g>
        <path class="cls-103" d="m30.26,804.81c-26.67,5.17-49.73,20.41-64.94,42.92-15.21,22.51-20.74,49.6-15.57,76.27l4.31-.83c-10.2-52.68,24.36-103.84,77.04-114.04s103.84,24.36,114.04,77.04l4.31-.83c-5.17-26.67-20.41-49.73-42.92-64.94-22.51-15.21-49.6-20.74-76.27-15.57Z"/>
        <path class="cls-28" d="m-7,846.77c-10.46,10.25-18.04,23.21-21.76,37.49l74.85,18.09-53.08-55.57Z"/>
        <path class="cls-28" d="m114.85,856.72c-8.78-11.93-20.67-21.2-34.24-26.84l-28.63,71.7,62.87-44.86Z"/>
        <path class="cls-28" d="m-29.29,886.41c-2.49,10.73-2.82,22.14-.59,33.65h0s68.77-13.32,68.77-13.32l6.55-2.27-74.72-18.06Z"/>
        <path class="cls-28" d="m33.15,825.4c-14.95,3.1-28.09,10.15-38.55,19.85l53.18,55.67-14.63-75.52Z"/>
        <path class="cls-28" d="m116.14,858.52l-62.98,44.94,3.55-.17,72.37-14.02h0c-2.21-11.4-6.72-21.78-12.94-30.75Z"/>
        <path class="cls-28" d="m35.33,824.98l14.65,75.65,28.58-71.57c-13.33-5.12-28.18-6.78-43.23-4.08Z"/>
      </g>
    </g>
    <g>
      <g>
        <path class="cls-54" d="m1736.83,700.46c20.31,25.41,49.3,41.39,81.62,45,32.33,3.61,64.13-5.59,89.54-25.9l-3.28-4.11c-50.19,40.11-123.66,31.91-163.78-18.28-40.11-50.19-31.91-123.66,18.28-163.78l-3.28-4.11c-25.41,20.31-41.39,49.3-45,81.62-3.61,32.33,5.59,64.13,25.9,89.54Z"/>
        <path class="cls-56" d="m1802.04,716.65c16.68,5.39,34.64,6.22,51.85,2.23l-22.44-89.43-29.41,87.19Z"/>
        <path class="cls-56" d="m1744.84,581.89c-7.77,15.94-10.99,33.71-9.43,51.24l91.95-9.51-82.53-41.73Z"/>
        <path class="cls-56" d="m1856.47,718.24c12.76-3.33,25.04-9.32,36.01-18.08h0s-52.36-65.52-52.36-65.52l-6.05-5.68,22.4,89.28Z"/>
        <path class="cls-56" d="m1757.05,685.95c11.6,14.13,26.38,24.15,42.48,29.85l29.47-87.35-71.95,57.5Z"/>
        <path class="cls-56" d="m1746.03,579.53l82.67,41.8-2.16-3.67-55.11-68.95h0c-10.87,8.68-19.36,19.23-25.41,30.82Z"/>
        <path class="cls-56" d="m1755.4,683.88l72.08-57.6-91.79,9.49c1.98,16.99,8.49,33.65,19.72,48.11Z"/>
      </g>
      <g>
        <path class="cls-46" d="m1485.51,600.46c-30.74,4.38-57.93,20.47-76.56,45.31-18.63,24.83-26.48,55.44-22.1,86.17l4.97-.71c-8.66-60.71,33.69-117.15,94.4-125.8,60.71-8.66,117.15,33.69,125.8,94.4l4.97-.71c-4.38-30.74-20.47-57.93-45.31-76.56-24.83-18.63-55.44-26.48-86.17-22.1Z"/>
        <path class="cls-35" d="m1440.6,646.24c-12.52,11.1-21.9,25.47-26.97,41.55l84.41,24.89-57.44-66.44Z"/>
        <path class="cls-35" d="m1579.13,664.51c-9.34-14.12-22.39-25.37-37.56-32.58l-36.75,80.22,74.31-47.63Z"/>
        <path class="cls-35" d="m1412.91,690.21c-3.45,12.1-4.48,25.11-2.58,38.37h0s79.25-11.3,79.25-11.3l7.6-2.22-84.27-24.85Z"/>
        <path class="cls-35" d="m1487.65,624.12c-17.24,2.69-32.64,9.99-45.13,20.47l57.54,66.56-12.41-87.03Z"/>
        <path class="cls-35" d="m1580.49,666.63l-74.44,47.72h4.06s83.41-11.89,83.41-11.89h0c-1.87-13.14-6.43-25.24-13.03-35.83Z"/>
        <path class="cls-35" d="m1490.15,623.76l12.43,87.18,36.68-80.08c-14.93-6.6-31.78-9.33-49.11-7.1Z"/>
      </g>
      <g>
        <path class="cls-48" d="m1356.94,632.92c-13.36-16.04-32.16-25.92-52.95-27.82-20.79-1.9-41.07,4.41-57.11,17.77l2.16,2.59c31.69-26.39,78.93-22.07,105.32,9.61,26.39,31.69,22.07,78.93-9.61,105.32l2.16,2.59c16.04-13.36,25.92-32.16,27.82-52.95,1.9-20.79-4.41-41.07-17.77-57.11Z"/>
        <path class="cls-87" d="m1314.89,623.38c-10.77-3.25-22.31-3.54-33.3-.76l15.55,57.09,17.75-56.32Z"/>
        <path class="cls-87" d="m1353.34,709.1c4.78-10.33,6.62-21.77,5.39-33l-58.88,7.29,53.49,25.71Z"/>
        <path class="cls-87" d="m1279.95,623.06c-8.14,2.3-15.95,6.3-22.87,12.07h0s34.44,41.36,34.44,41.36l3.96,3.57-15.53-56.99Z"/>
        <path class="cls-87" d="m1344.15,642.5c-7.62-8.92-17.24-15.15-27.64-18.6l-17.78,56.42,45.42-37.82Z"/>
        <path class="cls-87" d="m1352.6,710.64l-53.59-25.75,1.43,2.33,36.25,43.53h0c6.86-5.71,12.18-12.59,15.91-20.1Z"/>
        <path class="cls-87" d="m1345.24,643.81l-45.5,37.89,58.77-7.28c-1.49-10.87-5.88-21.48-13.27-30.61Z"/>
      </g>
      <g>
        <path class="cls-19" d="m1158.22,664.41c5.56-27.4.13-55.33-15.32-78.65-15.44-23.31-39.04-39.21-66.44-44.78l-.9,4.43c54.13,10.99,89.22,63.97,78.23,118.1s-63.97,89.22-118.1,78.23l-.9,4.43c27.4,5.56,55.33.13,78.64-15.32,23.31-15.44,39.21-39.04,44.78-66.44Z"/>
        <path class="cls-27" d="m1132.95,612.48c-5.64-13.98-15-26.28-27.11-35.43l-46.61,64.1,73.73-28.67Z"/>
        <path class="cls-27" d="m1075.6,724.5c14.8-3.66,28.29-11.34,38.99-22.03l-56.96-55.41,17.97,77.44Z"/>
        <path class="cls-27" d="m1103.99,575.7c-9.23-6.58-19.95-11.38-31.78-13.78h0s-14.35,70.65-14.35,70.65l-.41,7.12,46.54-63.99Z"/>
        <path class="cls-27" d="m1137.5,659.08c2.93-15.44,1.38-30.71-3.73-44.47l-73.85,28.72,77.59,15.76Z"/>
        <path class="cls-27" d="m1073.39,725.01l-18-77.57-1.23,3.44-15.1,74.36h0c11.72,2.38,23.36,2.17,34.34-.23Z"/>
        <path class="cls-27" d="m1137.05,661.31l-77.73-15.78,56.86,55.31c10.11-10.67,17.52-24.15,20.86-39.53Z"/>
      </g>
      <g>
        <path class="cls-86" d="m798.66,622.72c-23.05,26.84-34.27,61.05-31.6,96.33,2.68,35.28,18.93,67.4,45.77,90.46l3.72-4.34c-53.01-45.53-59.1-125.71-13.57-178.72,45.53-53.01,125.71-59.1,178.72-13.57l3.72-4.34c-26.84-23.05-61.05-34.27-96.33-31.6-35.28,2.68-67.4,18.93-90.46,45.77Z"/>
        <path class="cls-106" d="m794.54,695.69c-2.39,18.92.36,38.28,8.09,55.87l91.04-42.05-99.13-13.81Z"/>
        <path class="cls-106" d="m926.99,607.32c-18.61-5.08-38.25-4.93-56.66.28l28.75,96.35,27.92-96.63Z"/>
        <path class="cls-106" d="m803.84,754.18c6.13,12.96,15.02,24.88,26.6,34.83h0s59.44-69.2,59.44-69.2l4.85-7.61-90.89,41.99Z"/>
        <path class="cls-106" d="m818.25,641.4c-12.76,15.25-20.48,33.08-23.31,51.43l99.3,13.84-75.99-65.27Z"/>
        <path class="cls-106" d="m929.76,608.12l-27.97,96.8,3.48-3.05,62.55-72.83h0c-11.48-9.86-24.47-16.81-38.07-20.93Z"/>
        <path class="cls-106" d="m820.13,639.22l76.13,65.39-28.7-96.18c-17.76,5.55-34.25,15.87-47.43,30.79Z"/>
      </g>
      <g>
        <path class="cls-43" d="m495.35,710.75c28.31,12.98,59.97,14.15,89.16,3.31,29.19-10.84,52.41-32.4,65.39-60.71l-4.57-2.1c-25.63,55.91-91.97,80.55-147.88,54.92-55.91-25.63-80.55-91.97-54.92-147.88l-4.57-2.1c-12.98,28.31-14.15,59.97-3.31,89.16,10.84,29.19,32.4,52.41,60.71,65.39Z"/>
        <path class="cls-67" d="m558.07,696.49c16.58-2.57,32.3-9.61,45.29-20.43l-57.7-66.78,12.41,87.21Z"/>
        <path class="cls-67" d="m451.12,605.94c.22,16.98,5.13,33.55,14.01,47.86l74.51-47.74-88.53-.12Z"/>
        <path class="cls-67" d="m605.29,674.41c9.48-8.34,17.4-18.75,22.99-30.97h0s-72.99-33.46-72.99-33.46l-7.62-2.25,57.61,66.67Z"/>
        <path class="cls-67" d="m506.38,689.63c16,7.08,32.96,9.28,49.17,7.22l-12.44-87.36-36.74,80.15Z"/>
        <path class="cls-67" d="m451.12,603.4l88.68.13-3.42-2.21-76.81-35.21h0c-5.55,12.1-8.27,24.78-8.45,37.29Z"/>
        <path class="cls-67" d="m504.08,688.57l36.8-80.29-74.38,47.65c9.01,13.67,21.75,25.11,37.58,32.64Z"/>
      </g>
      <g>
        <path class="cls-70" d="m169.2,628.8c-18.21,12.21-30.58,30.79-34.82,52.3-4.24,21.51.15,43.39,12.36,61.6l2.94-1.97c-24.12-35.97-14.49-84.86,21.49-108.99,35.97-24.12,84.86-14.49,108.99,21.49l2.94-1.97c-12.21-18.21-30.79-30.58-52.3-34.82-21.51-4.24-43.39.15-61.6,12.36Z"/>
        <path class="cls-42" d="m154.66,671.7c-4.56,10.9-6.12,22.92-4.42,34.71l61.33-10.05-56.92-24.66Z"/>
        <path class="cls-42" d="m248.4,640.84c-10.27-6.12-22.03-9.28-33.89-9.21l1.22,62.3,32.67-53.09Z"/>
        <path class="cls-42" d="m150.53,708.17c1.52,8.76,4.85,17.35,10.12,25.21h0s46.95-31.49,46.95-31.49l4.16-3.75-61.23,10.03Z"/>
        <path class="cls-42" d="m177.81,643.2c-10.14,7-17.7,16.36-22.44,26.86l57.02,24.7-34.58-51.56Z"/>
        <path class="cls-42" d="m249.92,641.78l-32.73,53.19,2.59-1.24,49.42-33.14h0c-5.22-7.79-11.83-14.09-19.27-18.8Z"/>
        <path class="cls-42" d="m179.3,642.2l34.64,51.65-1.22-62.19c-11.52.38-23.08,3.81-33.43,10.54Z"/>
      </g>
      <g>
        <path class="cls-3" d="m12.54,592.68c-33.35,1.24-64.22,15.39-86.92,39.84-22.7,24.45-34.53,56.29-33.29,89.63l5.39-.2c-2.44-65.87,49.16-121.44,115.02-123.89,65.87-2.44,121.44,49.16,123.89,115.02l5.39-.2c-1.24-33.35-15.39-64.22-39.84-86.92-24.45-22.71-56.29-34.53-89.63-33.29Z"/>
        <path class="cls-64" d="m-40.61,636.58c-14.63,10.46-26.27,24.77-33.49,41.39l87.43,36.07-53.94-77.47Z"/>
        <path class="cls-64" d="m105.42,671.65c-8.4-16.14-21.09-29.63-36.5-39.04l-48.28,81.62,84.77-42.58Z"/>
        <path class="cls-64" d="m-75.14,680.48c-5.04,12.55-7.6,26.34-7.07,40.73h0s85.98-3.19,85.98-3.19l8.38-1.52-87.29-36.02Z"/>
        <path class="cls-64" d="m12.16,618.21c-18.73.94-36.01,7.02-50.54,16.81l54.04,77.6-3.5-94.42Z"/>
        <path class="cls-64" d="m106.64,674.08l-84.92,42.66,4.34.46,90.49-3.36h0c-.53-14.26-4.04-27.7-9.9-39.76Z"/>
        <path class="cls-64" d="m14.88,618.11l3.51,94.58,48.19-81.48c-15.22-8.73-32.93-13.54-51.7-13.1Z"/>
      </g>
    </g>
    <g>
      <g>
        <path class="cls-47" d="m1907.46,438.93c-15.63-13.45-35.56-20-56.12-18.46-20.56,1.54-39.29,11-52.73,26.63l2.52,2.17c26.56-30.87,73.29-34.37,104.15-7.81,30.87,26.56,34.37,73.29,7.81,104.15l2.52,2.17c13.45-15.63,20-35.56,18.46-56.12-1.54-20.56-11-39.29-26.63-52.73Z"/>
        <path class="cls-105" d="m1864.94,436.49c-11.02-1.4-22.31.19-32.56,4.69l24.46,53.07,8.1-57.76Z"/>
        <path class="cls-105" d="m1916.37,513.72c2.97-10.84,2.89-22.29-.13-33.02l-56.16,16.7,56.3,16.32Z"/>
        <path class="cls-105" d="m1830.85,441.88c-7.56,3.57-14.51,8.74-20.31,15.48h0s40.29,34.67,40.29,34.67l4.43,2.83-24.42-52.98Z"/>
        <path class="cls-105" d="m1896.56,450.34c-8.88-7.44-19.26-11.95-29.96-13.61l-8.11,57.86,38.07-44.25Z"/>
        <path class="cls-105" d="m1915.9,515.33l-56.4-16.35,1.77,2.03,42.41,36.49h0c5.75-6.68,9.81-14.25,12.21-22.18Z"/>
        <path class="cls-105" d="m1897.84,451.43l-38.14,44.33,56.06-16.67c-3.23-10.35-9.23-19.97-17.92-27.65Z"/>
      </g>
      <g>
        <path class="cls-102" d="m1515.72,466.48c-5.75,25.31-1.31,51.34,12.52,73.3,13.83,21.96,35.38,37.22,60.68,42.98l.93-4.09c-49.99-11.36-81.41-61.27-70.05-111.26,11.36-49.99,61.27-81.41,111.26-70.05l.93-4.09c-25.31-5.75-51.34-1.31-73.3,12.52-21.96,13.83-37.22,35.38-42.98,60.68Z"/>
        <path class="cls-29" d="m1538.06,515.21c4.93,13.09,13.35,24.7,24.39,33.46l44.63-58.47-69.02,25.01Z"/>
        <path class="cls-29" d="m1593.67,412.51c-13.81,3.08-26.49,9.91-36.65,19.6l51.66,52.63-15.01-72.23Z"/>
        <path class="cls-29" d="m1564.13,549.96c8.42,6.31,18.27,10.99,29.19,13.47h0s14.83-65.25,14.83-65.25l.53-6.6-44.55,58.38Z"/>
        <path class="cls-29" d="m1534.84,471.88c-3.05,14.26-1.94,28.47,2.51,41.34l69.14-25.06-71.65-16.29Z"/>
        <path class="cls-29" d="m1595.74,412.08l15.04,72.36,1.22-3.17,15.61-68.67h0c-10.82-2.46-21.63-2.51-31.86-.52Z"/>
        <path class="cls-29" d="m1535.31,469.82l71.78,16.32-51.57-52.54c-9.61,9.69-16.77,22.03-20.21,36.22Z"/>
      </g>
      <g>
        <path class="cls-33" d="m1375.18,489.06c14.44,18.71,35.3,30.68,58.75,33.7,23.44,3.02,46.66-3.27,65.37-17.71l-2.33-3.02c-36.96,28.52-90.24,21.66-118.76-15.3-28.52-36.96-21.66-90.24,15.3-118.76l-2.33-3.02c-18.71,14.44-30.68,35.3-33.7,58.75-3.02,23.44,3.27,46.66,17.71,65.37Z"/>
        <path class="cls-57" d="m1422.37,501.62c12.05,4.13,25.09,4.94,37.65,2.26l-15.2-65.25-22.44,62.99Z"/>
        <path class="cls-57" d="m1382.46,403.02c-5.84,11.49-8.4,24.36-7.48,37.11l66.92-5.78-59.44-31.33Z"/>
        <path class="cls-57" d="m1461.89,503.46c9.31-2.26,18.31-6.46,26.38-12.69h0s-37.23-48.25-37.23-48.25l-4.33-4.2,15.18,65.14Z"/>
        <path class="cls-57" d="m1390.05,478.77c8.25,10.41,18.87,17.87,30.5,22.21l22.48-63.1-52.98,40.89Z"/>
        <path class="cls-57" d="m1383.36,401.31l59.55,31.39-1.52-2.69-39.19-50.78h0c-8,6.18-14.3,13.73-18.84,22.08Z"/>
        <path class="cls-57" d="m1388.88,477.24l53.07-40.96-66.81,5.77c1.23,12.37,5.75,24.55,13.73,35.2Z"/>
      </g>
      <g>
        <path class="cls-88" d="m1248.84,463.44c1.94-21.48-4.6-42.44-18.41-59-13.82-16.56-33.26-26.76-54.74-28.7l-.31,3.47c42.43,3.84,73.83,41.48,70,83.91-3.84,42.43-41.48,73.83-83.91,70l-.31,3.47c21.48,1.94,42.44-4.6,59-18.41,16.56-13.82,26.76-33.26,28.7-54.74Z"/>
        <path class="cls-4" d="m1225.05,425.76c-5.51-10.24-13.73-18.88-23.79-24.87l-30.3,53.1,54.1-28.23Z"/>
        <path class="cls-4" d="m1190.59,516.51c11.04-4.06,20.73-11.09,28.03-20.2l-48.38-37.65,20.35,57.85Z"/>
        <path class="cls-4" d="m1199.73,400.02c-7.63-4.26-16.26-7.03-25.53-7.87h0s-5.01,55.39-5.01,55.39l.29,5.5,30.25-53.01Z"/>
        <path class="cls-4" d="m1232.5,461.11c.93-12.09-1.54-23.67-6.64-33.78l-54.19,28.28,60.83,5.5Z"/>
        <path class="cls-4" d="m1188.93,517.1l-20.38-57.95-.65,2.75-5.27,58.29h0c9.19.83,18.09-.32,26.31-3.09Z"/>
        <path class="cls-4" d="m1232.34,462.86l-60.93-5.51,48.29,37.58c6.85-9.04,11.38-20,12.64-32.07Z"/>
      </g>
      <g>
        <path class="cls-75" d="m880.53,415.02c-30.09-.21-58.46,11.3-79.89,32.43-21.43,21.13-33.35,49.33-33.56,79.43l4.86.03c.42-59.44,49.12-107.45,108.56-107.03,59.44.42,107.45,49.12,107.03,108.56l4.86.03c.21-30.09-11.31-58.46-32.43-79.89-21.13-21.43-49.33-33.35-79.43-33.56Z"/>
        <path class="cls-6" d="m830.91,452.46c-13.6,8.84-24.65,21.27-31.82,35.96l77.33,35.98-45.51-71.94Z"/>
        <path class="cls-6" d="m961.07,489.86c-6.93-14.87-17.82-27.54-31.33-36.63l-46.74,71.61,78.07-34.99Z"/>
        <path class="cls-6" d="m798.05,490.63c-5.04,11.11-7.9,23.42-7.99,36.41h0s77.59.55,77.59.55l7.61-1.04-77.2-35.92Z"/>
        <path class="cls-6" d="m879.18,438.01c-16.91.1-32.72,4.89-46.2,13.14l45.6,72.06.6-85.2Z"/>
        <path class="cls-6" d="m962.07,492.1l-78.21,35.05,3.89.59,81.66.58h0c.09-12.87-2.54-25.12-7.34-36.21Z"/>
        <path class="cls-6" d="m881.63,438.03l-.6,85.35,46.66-71.49c-13.36-8.47-29.12-13.51-46.06-13.86Z"/>
      </g>
      <g>
        <path class="cls-21" d="m717.76,512.69c19.77,10.73,42.53,13.12,64.09,6.73,21.56-6.39,39.35-20.79,50.08-40.56l-3.19-1.73c-21.2,39.04-70.2,53.56-109.25,32.37s-53.56-70.2-32.37-109.25l-3.19-1.73c-10.73,19.77-13.12,42.53-6.73,64.09,6.39,21.56,20.79,39.35,40.56,50.08Z"/>
        <path class="cls-80" d="m763.66,505.47c12.08-1.05,23.74-5.35,33.63-12.51l-38.33-50.94,4.69,63.45Z"/>
        <path class="cls-80" d="m691,435c-.67,12.25,2.06,24.43,7.76,35.18l56.02-30.77-63.79-4.41Z"/>
        <path class="cls-80" d="m798.76,491.87c7.23-5.55,13.45-12.67,18.08-21.2h0s-50.96-27.67-50.96-27.67l-5.38-1.99,38.27,50.86Z"/>
        <path class="cls-80" d="m726.75,498.01c11.19,5.89,23.3,8.29,35.09,7.6l-4.7-63.56-30.38,55.97Z"/>
        <path class="cls-80" d="m691.12,433.18l63.9,4.41-2.36-1.76-53.64-29.12h0c-4.59,8.45-7.17,17.46-7.91,26.46Z"/>
        <path class="cls-80" d="m725.14,497.14l30.44-56.07-55.93,30.72c5.83,10.29,14.45,19.16,25.49,25.35Z"/>
      </g>
      <g>
        <path class="cls-85" d="m572.06,406.56c-29.1,12.08-51.76,34.78-63.79,63.9-12.03,29.12-12.01,61.19.08,90.29l4.7-1.95c-23.87-57.48,3.48-123.67,60.96-147.54,57.48-23.87,123.67,3.48,147.54,60.96l4.7-1.95c-12.08-29.1-34.78-51.76-63.9-63.79-29.12-12.03-61.19-12.01-90.29.08Z"/>
        <path class="cls-84" d="m539.5,462.93c-9.5,14.08-15.08,30.58-15.99,47.67l89.26,3.11-73.27-50.78Z"/>
        <path class="cls-84" d="m680.28,445.84c-12.76-11.51-28.43-19.27-45.16-22.52l-15.82,88.14,60.99-65.62Z"/>
        <path class="cls-84" d="m523.41,513.16c-.33,12.77,1.95,25.81,7.17,38.37h0s75.03-31.16,75.03-31.16l6.91-4.11-89.11-3.1Z"/>
        <path class="cls-84" d="m580.15,429.28c-16.26,7-29.56,18.08-39.18,31.53l73.4,50.86-34.21-82.4Z"/>
        <path class="cls-84" d="m682.16,447.58l-61.1,65.74,3.99-1.02,78.97-32.79h0c-5.17-12.44-12.71-23.18-21.87-31.92Z"/>
        <path class="cls-84" d="m582.52,428.3l34.28,82.54,15.8-87.99c-16.35-2.71-33.6-1.13-50.07,5.44Z"/>
      </g>
      <g>
        <path class="cls-39" d="m361.92,530.29c28.25-4.21,53.17-19.17,70.18-42.12,17-22.95,24.05-51.15,19.84-79.4l-4.56.68c8.31,55.8-30.33,107.97-86.13,116.28-55.8,8.31-107.97-30.32-116.28-86.13l-4.56.68c4.21,28.25,19.17,53.17,42.12,70.17,22.95,17,51.15,24.05,79.4,19.84Z"/>
        <path class="cls-71" d="m402.98,487.91c11.46-10.28,20-23.56,24.57-38.38l-77.79-22.41,53.22,60.8Z"/>
        <path class="cls-71" d="m275.43,471.9c8.68,12.93,20.75,23.22,34.74,29.76l33.35-74.01-68.09,44.25Z"/>
        <path class="cls-71" d="m428.2,447.29c3.1-11.15,3.97-23.13,2.16-35.32h0s-72.84,10.85-72.84,10.85l-6.98,2.09,77.67,22.38Z"/>
        <path class="cls-71" d="m359.82,508.53c15.84-2.57,29.97-9.38,41.4-19.09l-53.32-60.9,11.92,79.99Z"/>
        <path class="cls-71" d="m274.17,469.95l68.21-44.33-3.74.02-76.66,11.42h0c1.8,12.08,6.06,23.19,12.19,32.89Z"/>
        <path class="cls-71" d="m357.52,508.87l-11.94-80.13-33.29,73.88c13.77,5.99,29.29,8.4,45.22,6.26Z"/>
      </g>
      <g>
        <path class="cls-66" d="m227.54,451.38c-8.14-20.67-23.84-36.94-44.22-45.8-20.37-8.86-42.98-9.26-63.65-1.12l1.32,3.34c40.84-16.08,87.14,4.06,103.22,44.9,16.08,40.84-4.06,87.14-44.9,103.22l1.32,3.34c20.67-8.14,36.94-23.84,45.8-44.22,8.86-20.37,9.26-42.98,1.12-63.65Z"/>
        <path class="cls-55" d="m188.23,427.69c-9.8-6.88-21.36-11.03-33.4-11.89l-3.35,62.89,36.75-50.99Z"/>
        <path class="cls-55" d="m198.45,527.16c8.28-8.84,13.96-19.79,16.47-31.55l-61.93-12.3,45.47,43.85Z"/>
        <path class="cls-55" d="m153.03,415.69c-9-.4-18.22,1.04-27.14,4.55h0s20.99,53.3,20.99,53.3l2.81,4.92,3.35-62.78Z"/>
        <path class="cls-55" d="m211.42,456.78c-4.73-11.56-12.36-21.07-21.72-28.03l-36.81,51.08,58.53-23.05Z"/>
        <path class="cls-55" d="m197.19,528.46l-45.55-43.93.67,2.83,22.09,56.1h0c8.84-3.48,16.51-8.66,22.79-15Z"/>
        <path class="cls-55" d="m212.08,458.47l-58.64,23.09,61.82,12.28c2.12-11.49,1.24-23.67-3.19-35.37Z"/>
      </g>
      <g>
        <path class="cls-9" d="m45.54,520.71c24.39-23.09,38.33-54.3,39.25-87.87.92-33.57-11.29-65.49-34.38-89.88l-3.94,3.73c45.61,48.17,43.52,124.47-4.65,170.08-48.17,45.61-124.47,43.52-170.08-4.65l-3.94,3.73c23.09,24.39,54.3,38.33,87.87,39.24,33.57.92,65.49-11.29,89.88-34.38Z"/>
        <path class="cls-30" d="m56.55,452.21c4.11-17.63,3.4-36.18-2.18-53.54l-90.07,30.81,92.25,22.73Z"/>
        <path class="cls-30" d="m53.49,396.08c-4.52-12.84-11.75-24.96-21.72-35.49h0s-62.88,59.53-62.88,59.53l-5.32,6.72,89.92-30.76Z"/>
        <path class="cls-30" d="m28.86,501.15c13.54-13.15,22.57-29.23,27.04-46.29l-92.41-22.77,65.38,69.06Z"/>
        <path class="cls-30" d="m26.87,503.04l-65.49-69.18,17.7,93.62c17.31-3.51,33.89-11.64,47.79-24.44Z"/>
      </g>
    </g>
    <g>
      <g>
        <path class="cls-78" d="m1731.03,208.59c-23.93,26.03-36.29,59.83-34.81,95.15,1.48,35.33,16.64,67.97,42.67,91.9l3.87-4.21c-51.42-47.27-54.79-127.56-7.52-178.98,47.27-51.42,127.56-54.79,178.98-7.52l3.87-4.21c-26.03-23.93-59.83-36.29-95.15-34.81-35.33,1.48-67.97,16.64-91.9,42.67Z"/>
        <path class="cls-52" d="m1724.46,281.34c-3.03,18.82-.93,38.25,6.2,56.08l92.35-38.94-98.55-17.14Z"/>
        <path class="cls-52" d="m1859.74,197.53c-18.42-5.71-38.04-6.22-56.61-1.63l25.47,97.21,31.14-95.58Z"/>
        <path class="cls-52" d="m1731.77,340.07c5.69,13.16,14.16,25.36,25.4,35.69h0s61.7-67.12,61.7-67.12l5.1-7.44-92.2,38.87Z"/>
        <path class="cls-52" d="m1749.97,227.91c-13.26,14.8-21.57,32.35-25.02,50.59l98.73,17.17-73.71-67.76Z"/>
        <path class="cls-52" d="m1862.48,198.42l-31.2,95.75,3.58-2.93,64.94-70.64h0c-11.13-10.23-23.87-17.61-37.32-22.19Z"/>
        <path class="cls-52" d="m1751.92,225.79l73.84,67.88-25.42-97.04c-17.92,4.95-34.75,14.7-48.42,29.16Z"/>
      </g>
      <g>
        <path class="cls-11" d="m1429.89,222.16c-22.87,19.95-36.6,47.61-38.66,77.88-2.06,30.28,7.78,59.54,27.73,82.41l3.69-3.22c-39.4-45.17-34.71-113.98,10.46-153.38,45.17-39.4,113.98-34.71,153.38,10.46l3.69-3.22c-19.95-22.87-47.61-36.6-77.88-38.66-30.28-2.07-59.54,7.78-82.41,27.73Z"/>
        <path class="cls-61" d="m1417.42,283.6c-4.36,15.76-4.4,32.54,0,48.42l82.45-24.51-82.45-23.91Z"/>
        <path class="cls-61" d="m1540.72,224.87c-15.17-6.6-31.86-8.89-48.14-6.73l12.56,85.32,35.58-78.59Z"/>
        <path class="cls-61" d="m1418.12,334.39c3.61,11.76,9.69,22.97,18.3,32.84h0s58.96-51.43,58.96-51.43l5.05-5.87-82.31,24.47Z"/>
        <path class="cls-61" d="m1444.23,240.43c-12.7,11.38-21.45,25.56-26.11,40.79l82.59,23.96-56.48-64.75Z"/>
        <path class="cls-61" d="m1542.97,225.89l-35.64,78.73,3.33-2.16,62.06-54.13h0c-8.53-9.78-18.7-17.27-29.75-22.45Z"/>
        <path class="cls-61" d="m1446.09,238.8l56.58,64.86-12.53-85.17c-15.75,2.53-31.02,9.26-44.05,20.31Z"/>
      </g>
      <g>
        <path class="cls-62" d="m1239.72,210.64c-22.02-.73-43,7.16-59.08,22.21-16.08,15.05-25.34,35.46-26.07,57.48l3.56.12c1.44-43.49,37.99-77.69,81.48-76.25,43.49,1.44,77.69,37.99,76.25,81.48l3.56.12c.73-22.02-7.16-43-22.21-59.08-15.05-16.08-35.46-25.34-57.48-26.07Z"/>
        <path class="cls-7" d="m1202.69,237.08c-10.12,6.21-18.44,15.09-23.97,25.71l55.9,27.8-31.93-53.51Z"/>
        <path class="cls-7" d="m1297.22,266.94c-4.79-11.02-12.51-20.49-22.22-27.4l-35.57,51.51,57.79-24.11Z"/>
        <path class="cls-7" d="m1177.92,264.39c-3.9,8.03-6.22,16.99-6.54,26.49h0s56.76,1.88,56.76,1.88l5.59-.62-55.81-27.76Z"/>
        <path class="cls-7" d="m1238.29,227.43c-12.38-.25-24.04,2.95-34.06,8.73l31.99,53.6,2.06-62.33Z"/>
        <path class="cls-7" d="m1297.91,268.59l-57.9,24.16,2.84.5,59.74,1.98h0c.31-9.41-1.38-18.43-4.68-26.64Z"/>
        <path class="cls-7" d="m1240.08,227.49l-2.07,62.44,35.51-51.42c-9.62-6.45-21.05-10.44-33.44-11.02Z"/>
      </g>
      <g>
        <path class="cls-16" d="m1000.56,275.07c5.79,31.56,23.52,58.97,49.93,77.19,26.41,18.22,58.33,25.06,89.89,19.27l-.94-5.1c-62.33,11.44-122.35-29.97-133.79-92.3-11.44-62.33,29.97-122.35,92.3-133.79l-.94-5.1c-31.56,5.79-58.97,23.52-77.19,49.93-18.22,26.41-25.06,58.33-19.27,89.89Z"/>
        <path class="cls-95" d="m1049.68,319.56c11.98,12.47,27.2,21.57,44.02,26.14l22.23-88.18-66.24,62.04Z"/>
        <path class="cls-95" d="m1062.84,175.77c-14.19,10.23-25.28,24.17-32.1,40.13l84.34,34.64-52.24-74.77Z"/>
        <path class="cls-95" d="m1096.23,346.35c12.64,3.06,26.11,3.59,39.73,1.09h0s-14.93-81.37-14.93-81.37l-2.61-7.76-22.19,88.04Z"/>
        <path class="cls-95" d="m1024.91,271.9c3.49,17.69,11.66,33.3,22.99,45.76l66.36-62.15-89.35,16.4Z"/>
        <path class="cls-95" d="m1064.99,174.28l52.34,74.9-.16-4.19-15.71-85.63h0c-13.49,2.48-25.8,7.68-36.46,14.93Z"/>
        <path class="cls-95" d="m1024.44,269.32l89.51-16.42-84.19-34.58c-6.2,15.69-8.33,33.2-5.32,51.01Z"/>
      </g>
      <g>
        <path class="cls-49" d="m865.24,308.61c22.92,6.4,46.96,3.49,67.69-8.19,20.73-11.68,35.67-30.74,42.07-53.66l-3.7-1.03c-12.64,45.27-59.75,71.82-105.03,59.18-45.27-12.64-71.82-59.75-59.18-105.02l-3.7-1.03c-6.4,22.92-3.49,46.96,8.19,67.69,11.68,20.73,30.74,35.67,53.66,42.07Z"/>
        <path class="cls-100" d="m910.86,290.33c12.21-3.93,23.22-11.12,31.73-20.85l-51.56-43.48,19.82,64.33Z"/>
        <path class="cls-100" d="m819.29,234.81c2.2,12.79,7.89,24.71,16.31,34.44l50.51-44.96-66.83,10.52Z"/>
        <path class="cls-100" d="m943.85,268.01c6.15-7.43,10.88-16.24,13.64-26.13h0s-59.09-16.5-59.09-16.5l-6.02-.78,51.47,43.41Z"/>
        <path class="cls-100" d="m871.03,291.35c12.93,3.43,25.99,3.05,37.98-.45l-19.86-64.44-18.12,64.89Z"/>
        <path class="cls-100" d="m818.99,232.9l66.95-10.54-2.85-1.26-62.19-17.36h0c-2.74,9.8-3.27,19.69-1.9,29.16Z"/>
        <path class="cls-100" d="m869.17,290.83l18.15-65.01-50.42,44.88c8.44,9.24,19.43,16.35,32.27,20.12Z"/>
      </g>
      <g>
        <path class="cls-1" d="m701.07,278.83c10.78-20.95,12.76-44.85,5.57-67.29-7.19-22.44-22.69-40.74-43.64-51.52l-1.74,3.38c41.39,21.3,57.73,72.3,36.43,113.69s-72.3,57.73-113.69,36.43l-1.74,3.38c20.95,10.78,44.85,12.76,67.29,5.57,22.44-7.19,40.74-22.69,51.52-43.64Z"/>
        <path class="cls-34" d="m692.45,230.92c-1.37-12.63-6.15-24.75-13.88-34.94l-52.47,41.32,66.36-6.38Z"/>
        <path class="cls-34" d="m620.31,308.66c12.84.41,25.54-2.72,36.67-8.95l-33.53-57.97-3.14,66.92Z"/>
        <path class="cls-34" d="m677.39,194.47c-5.98-7.45-13.58-13.8-22.62-18.45h0s-27.8,54.02-27.8,54.02l-1.96,5.68,52.39-41.26Z"/>
        <path class="cls-34" d="m685.49,269.76c5.91-11.85,8.15-24.6,7.15-36.93l-66.47,6.39,59.33,30.53Z"/>
        <path class="cls-34" d="m618.4,308.57l3.15-67.04-1.79,2.51-29.26,56.86h0c8.96,4.61,18.45,7.1,27.9,7.67Z"/>
        <path class="cls-34" d="m684.61,271.47l-59.43-30.59,33.47,57.87c10.64-6.34,19.73-15.58,25.97-27.29Z"/>
      </g>
      <g>
        <path class="cls-82" d="m543.07,302.69c25.67-19.39,42.26-47.61,46.71-79.47,4.45-31.86-3.78-63.55-23.17-89.22l-4.15,3.13c38.29,50.71,28.19,123.12-22.52,161.41-50.71,38.29-123.12,28.19-161.41-22.52l-4.15,3.13c19.39,25.67,47.61,42.26,79.47,46.71,31.86,4.45,63.55-3.78,89.22-23.17Z"/>
        <path class="cls-83" d="m560.84,238.66c5.79-16.34,7.09-34.08,3.62-51.2l-89.02,19.75,85.4,31.45Z"/>
        <path class="cls-83" d="m426.08,291.55c15.55,8.12,33.03,11.78,50.4,10.71l-6.9-91.16-43.5,80.45Z"/>
        <path class="cls-83" d="m563.9,184.9c-2.94-12.7-8.53-25.01-16.9-36.09h0s-66.19,49.98-66.19,49.98l-5.78,5.83,88.87-19.72Z"/>
        <path class="cls-83" d="m529.28,282.3c14.28-11.08,24.59-25.43,30.66-41.19l-85.55-31.5,54.89,72.69Z"/>
        <path class="cls-83" d="m423.77,290.3l43.57-80.59-3.68,2.03-69.67,52.6h0c8.29,10.98,18.49,19.66,29.78,25.96Z"/>
        <path class="cls-83" d="m527.18,283.88l-54.98-72.82,6.89,91c16.85-1.5,33.5-7.47,48.1-18.18Z"/>
      </g>
      <g>
        <path class="cls-40" d="m255.81,218.09c-26.12-22.33-59.37-33.16-93.63-30.49-34.26,2.68-65.43,18.53-87.76,44.65l4.22,3.61c44.12-51.59,121.98-57.67,173.56-13.55s57.67,121.98,13.55,173.56l4.22,3.61c22.33-26.12,33.16-59.37,30.48-93.63-2.67-34.26-18.53-65.43-44.65-87.76Z"/>
        <path class="cls-22" d="m184.93,214.25c-18.38-2.29-37.18.43-54.25,7.98l41.04,88.33,13.21-96.31Z"/>
        <path class="cls-22" d="m271.04,342.71c4.9-18.09,4.71-37.16-.39-55.04l-93.52,28.13,93.92,26.91Z"/>
        <path class="cls-22" d="m128.14,223.4c-12.58,5.98-24.14,14.64-33.77,25.91h0s67.34,57.58,67.34,57.58l7.41,4.69-40.97-88.19Z"/>
        <path class="cls-22" d="m237.71,237.16c-14.84-12.36-32.17-19.82-50.01-22.53l-13.23,96.48,63.24-73.95Z"/>
        <path class="cls-22" d="m270.27,345.4l-94.08-26.96,2.97,3.38,70.87,60.61h0c9.55-11.17,16.27-23.8,20.25-37.02Z"/>
        <path class="cls-22" d="m239.83,238.98l-63.35,74.08,93.36-28.08c-5.43-17.23-15.49-33.23-30.01-46Z"/>
      </g>
      <g>
        <path class="cls-81" d="m26.54,211.33c-28.09-14.06-59.98-16.34-89.79-6.41-29.81,9.92-53.96,30.86-68.02,58.95l4.54,2.27c27.77-55.49,95.51-78.05,151-50.28s78.05,95.51,50.28,151l4.54,2.27c14.06-28.09,16.33-59.98,6.41-89.79-9.92-29.81-30.86-53.96-58.95-68.02Z"/>
        <path class="cls-98" d="m67.52,318.54c.36-17.13-4.01-34.01-12.48-48.74l-76.77,45.57,89.25,3.18Z"/>
        <path class="cls-98" d="m14.69,232.24c-15.89-7.69-32.91-10.49-49.33-8.97l9.53,88.51L14.69,232.24Z"/>
        <path class="cls-98" d="m67.43,321.09l-89.41-3.18,3.38,2.34,76.23,38.15h0c6.01-12.01,9.19-24.7,9.8-37.31Z"/>
        <path class="cls-98" d="m16.97,233.39l-39.88,79.68,76.64-45.48c-8.62-14.09-21.06-26.07-36.76-34.2Z"/>
      </g>
    </g>
    <g>
      <g>
        <path class="cls-65" d="m1703.97,131.27c24.75-8.64,44.65-26.4,56.05-50.01,11.39-23.61,12.91-50.24,4.27-74.99l-4,1.4c17.06,48.89-8.83,102.54-57.71,119.6-48.89,17.06-102.54-8.83-119.6-57.71l-4,1.4c8.64,24.75,26.4,44.65,50.01,56.04,23.61,11.39,50.24,12.91,74.99,4.27Z"/>
        <path class="cls-89" d="m1733.72,86.03c8.56-11.24,14-24.67,15.57-38.82l-73.98-6.87,58.41,45.69Z"/>
        <path class="cls-89" d="m1615.98,93.46c10.04,10.17,22.68,17.37,36.43,20.87l17.37-72.44-53.8,51.57Z"/>
        <path class="cls-89" d="m1749.49,45.08c.89-10.59-.38-21.53-4.11-32.21h0s-63.81,22.27-63.81,22.27l-5.94,3.08,73.86,6.86Z"/>
        <path class="cls-89" d="m1698.35,112.01c13.84-5.04,25.41-13.59,34.05-24.31l-58.51-45.77,24.46,70.07Z"/>
        <path class="cls-89" d="m1614.5,91.92l53.9-51.66-3.37.66-67.16,23.44h0c3.69,10.58,9.44,19.86,16.63,27.56Z"/>
        <path class="cls-89" d="m1696.33,112.72l-24.5-70.2-17.34,72.31c13.44,3.04,27.85,2.55,41.84-2.12Z"/>
      </g>
      <g>
        <path class="cls-37" d="m1509.25,73.36c-3.6-30.65-18.93-58.07-43.15-77.2-24.22-19.13-54.44-27.68-85.1-24.08l.58,4.95c60.55-7.11,115.6,36.36,122.71,96.91,7.11,60.55-36.36,115.6-96.91,122.71l.58,4.95c30.65-3.6,58.07-18.93,77.2-43.15,19.13-24.22,27.68-54.44,24.08-85.1Z"/>
        <path class="cls-79" d="m1464.85,27.6c-10.73-12.72-24.78-22.39-40.64-27.82l-26.81,83.27,67.44-55.45Z"/>
        <path class="cls-79" d="m1443.3,164.82c14.26-8.94,25.77-21.63,33.3-36.53l-78.82-38.49,45.52,75.02Z"/>
        <path class="cls-79" d="m1421.82-1c-11.94-3.72-24.84-5.06-38.07-3.51h0s9.29,79.04,9.29,79.04l2.02,7.61L1421.82-1Z"/>
        <path class="cls-79" d="m1485.68,74.9c-2.25-17.2-9.13-32.69-19.23-45.35l-67.56,55.55,86.79-10.2Z"/>
        <path class="cls-79" d="m1441.15,166.13l-45.6-75.15-.1,4.04,9.77,83.18h0c13.11-1.54,25.24-5.77,35.93-12.07Z"/>
        <path class="cls-79" d="m1485.97,77.4l-86.95,10.22,78.68,38.42c6.93-14.68,10.05-31.36,8.27-48.64Z"/>
      </g>
      <g>
        <path class="cls-53" d="m1213.5,30.61c-26.29,8.05-47.87,25.85-60.77,50.14-12.9,24.28-15.57,52.13-7.52,78.42l4.25-1.3c-15.9-51.93,13.41-107.11,65.34-123.01,51.93-15.9,107.11,13.41,123.01,65.34l4.25-1.3c-8.05-26.29-25.86-47.87-50.14-60.77-24.28-12.9-52.13-15.57-78.42-7.52Z"/>
        <path class="cls-73" d="m1180.48,76.82c-9.43,11.43-15.67,25.29-17.89,40.05l77.26,10.2-59.36-50.25Z"/>
        <path class="cls-73" d="m1304.18,73.8c-10.11-11.07-23.07-19.13-37.33-23.36l-21.15,75.22,58.48-51.86Z"/>
        <path class="cls-73" d="m1162.29,119.09c-1.36,11.06-.47,22.58,3,33.92h0s67.78-20.75,67.78-20.75l6.35-2.99-77.13-10.18Z"/>
        <path class="cls-73" d="m1218.61,51.02c-14.71,4.72-27.19,13.22-36.68,24.09l59.47,50.34-22.79-74.43Z"/>
        <path class="cls-73" d="m1305.66,75.48l-58.58,51.96,3.55-.55,71.34-21.84h0c-3.44-11.24-9.09-21.2-16.31-29.56Z"/>
        <path class="cls-73" d="m1220.75,50.36l22.83,74.57,21.11-75.09c-13.97-3.73-29.09-3.81-43.94.52Z"/>
      </g>
      <g>
        <path class="cls-50" d="m986.04,81.44c-4.68,21.52-.7,43.58,11.2,62.11,11.91,18.53,30.32,31.31,51.84,35.99l.76-3.48c-42.51-9.25-69.57-51.36-60.32-93.87s51.36-69.57,93.87-60.32l.76-3.48c-21.52-4.68-43.58-.7-62.11,11.2-18.53,11.91-31.31,30.32-35.99,51.84Z"/>
        <path class="cls-94" d="m1005.39,122.62c4.29,11.07,11.52,20.86,20.97,28.2l37.41-49.97-58.38,21.77Z"/>
        <path class="cls-94" d="m1051.77,35.03c-11.7,2.72-22.41,8.62-30.95,16.92l44.26,44.26-13.31-61.18Z"/>
        <path class="cls-94" d="m1027.78,151.9c7.2,5.28,15.59,9.18,24.88,11.2h0s12.07-55.49,12.07-55.49l.4-5.6-37.35,49.89Z"/>
        <path class="cls-94" d="m1002.31,85.87c-2.47,12.13-1.43,24.17,2.45,35.07l58.48-21.81-60.94-13.26Z"/>
        <path class="cls-94" d="m1053.52,34.64l13.33,61.29,1.01-2.7,12.71-58.4h0c-9.2-2-18.37-1.96-27.04-.19Z"/>
        <path class="cls-94" d="m1002.69,84.12l61.04,13.28-44.18-44.18c-8.08,8.3-14.06,18.83-16.86,30.9Z"/>
      </g>
      <g>
        <path class="cls-60" d="m683.88,143.27c25.21,15.3,54.87,19.86,83.52,12.85,28.64-7.01,52.84-24.76,68.14-49.97l-4.07-2.47c-30.21,49.8-95.31,65.74-145.11,35.53-49.8-30.21-65.74-95.31-35.53-145.11l-4.07-2.47c-15.3,25.21-19.86,54.87-12.85,83.52,7.01,28.64,24.76,52.84,49.97,68.14Z"/>
        <path class="cls-58" d="m744.44,136.71c15.88-.61,31.43-5.51,44.84-14.27l-47-69.12,2.16,83.4Z"/>
        <path class="cls-58" d="m653.71,39.84c-1.64,16,1.16,32.12,7.96,46.56l75.31-36.78-83.27-9.78Z"/>
        <path class="cls-58" d="m791.27,121.09c9.82-6.81,18.41-15.74,25.01-26.62h0s-65.01-39.44-65.01-39.44l-6.92-2.95,46.92,69.01Z"/>
        <path class="cls-58" d="m696.57,124.61c14.28,8.41,29.99,12.33,45.47,12.15l-2.16-83.54-43.31,71.39Z"/>
        <path class="cls-58" d="m653.99,37.46l83.42,9.8-2.98-2.45L666.01,3.3h0c-6.54,10.78-10.48,22.41-12.02,34.16Z"/>
        <path class="cls-58" d="m694.51,123.36l43.39-71.52-75.18,36.71c6.99,13.84,17.72,26,31.79,34.8Z"/>
      </g>
      <g>
        <path class="cls-25" d="m488.84,109.63c15.25,15.53,35.63,24.2,57.4,24.4,21.77.2,42.31-8.09,57.84-23.34l-2.46-2.51c-30.68,30.12-80.15,29.66-110.27-1.02-30.12-30.68-29.66-80.15,1.02-110.27l-2.46-2.51c-15.53,15.25-24.2,35.63-24.4,57.4-.2,21.77,8.09,42.31,23.34,57.84Z"/>
        <path class="cls-32" d="m533.35,115.96c11.47,2.46,23.49,1.78,34.67-2.04l-21.03-58-13.64,60.05Z"/>
        <path class="cls-32" d="m486.09,30.15c-4.09,11.14-5.02,23.19-2.79,34.75l60.56-12.59-57.78-22.16Z"/>
        <path class="cls-32" d="m569.69,113.32c8.27-3.08,16.04-7.91,22.74-14.49h0s-39.32-40.05-39.32-40.05l-4.41-3.37,20.99,57.91Z"/>
        <path class="cls-32" d="m501.31,98.59c8.68,8.62,19.21,14.28,30.31,16.98l13.67-60.15-43.98,43.18Z"/>
        <path class="cls-32" d="m486.73,28.5l57.88,22.2-1.69-2.3-41.38-42.15h0c-6.64,6.52-11.58,14.12-14.82,22.25Z"/>
        <path class="cls-32" d="m500.07,97.32l44.06-43.25-60.46,12.57c2.48,11.17,7.94,21.82,16.4,30.68Z"/>
      </g>
      <g>
        <path class="cls-17" d="m321.01,61.94c-10.64-21.63-29.07-37.83-51.88-45.6-22.82-7.77-47.3-6.2-68.93,4.44l1.72,3.49c42.73-21.01,94.59-3.35,115.6,39.38,21.01,42.73,3.35,94.59-39.38,115.6l1.72,3.49c21.63-10.64,37.83-29.07,45.6-51.88,7.77-22.82,6.2-47.3-4.44-68.93Z"/>
        <path class="cls-63" d="m276.4,39.82c-11.21-6.57-24.08-10.03-37.17-9.9l1.96,68.3,35.21-58.4Z"/>
        <path class="cls-63" d="m296.28,146.47c8.17-10.3,13.34-22.64,15-35.58l-68.06-7.8,53.06,43.38Z"/>
        <path class="cls-63" d="m237.26,29.97c-9.76.37-19.61,2.74-28.95,7.34h0s27.43,55.78,27.43,55.78l3.47,5.08-1.96-68.19Z"/>
        <path class="cls-63" d="m304.06,69.22c-6.14-12.08-15.24-21.69-25.98-28.38l-35.27,58.51,61.25-30.12Z"/>
        <path class="cls-63" d="m295.04,147.99l-53.15-43.45.97,3,28.87,58.7h0c9.25-4.55,17.08-10.83,23.31-18.25Z"/>
        <path class="cls-63" d="m304.92,70.98l-61.36,30.18,67.94,7.79c1.28-12.61-.77-25.71-6.59-37.96Z"/>
      </g>
      <g>
        <path class="cls-15" d="m-23.8,34.99c-29.15,11.72-52,34.08-64.32,62.98-12.33,28.9-12.66,60.87-.95,90.02l4.71-1.89c-23.14-57.58,4.87-123.26,62.45-146.4,57.58-23.14,123.26,4.87,146.4,62.45l4.71-1.89c-11.72-29.15-34.09-52-62.98-64.32-28.9-12.33-60.87-12.66-90.02-.95Z"/>
        <path class="cls-5" d="m-56.9,90.81c-9.63,13.93-15.39,30.31-16.49,47.34l88.96,4.12-72.47-51.46Z"/>
        <path class="cls-5" d="m83.65,75.37c-12.59-11.62-28.12-19.54-44.77-22.97l-16.78,87.7,61.55-64.73Z"/>
        <path class="cls-5" d="m-73.52,140.71c-.47,12.73,1.65,25.76,6.71,38.34h0s75.16-30.21,75.16-30.21l6.94-4.02-88.81-4.11Z"/>
        <path class="cls-5" d="m-16,57.73c-16.3,6.8-29.67,17.69-39.42,30.99l72.6,51.55L-16,57.73Z"/>
        <path class="cls-5" d="m85.5,77.14l-61.66,64.84,3.99-.97,79.11-31.8h0c-5.01-12.47-12.4-23.26-21.44-32.07Z"/>
        <path class="cls-5" d="m-13.62,56.78l33.23,82.69,16.75-87.54c-16.27-2.89-33.49-1.51-49.98,4.86Z"/>
      </g>
    </g>
  </g>
</svg>